<svg width="82" height="82" viewBox="0 0 82 82" fill="none" xmlns="http://www.w3.org/2000/svg">
<circle cx="41" cy="41" r="41" fill="#2A1215"/>
<path d="M57.2078 31.8831H45.9328V26.9062C45.9328 26.1267 45.303 25.4969 44.5234 25.4969H26.5539V23.7352C26.5539 23.5414 26.3954 23.3828 26.2016 23.3828H23.7352C23.5414 23.3828 23.3828 23.5414 23.3828 23.7352V58.2648C23.3828 58.4586 23.5414 58.6172 23.7352 58.6172H26.2016C26.3954 58.6172 26.5539 58.4586 26.5539 58.2648V46.6375H37.4766V51.6144C37.4766 52.3939 38.1064 53.0237 38.8859 53.0237H57.2078C57.9874 53.0237 58.6172 52.3939 58.6172 51.6144V33.2925C58.6172 32.5129 57.9874 31.8831 57.2078 31.8831Z" fill="#F0F5FF"/>
</svg>
