<svg width="82" height="82" viewBox="0 0 82 82" fill="none" xmlns="http://www.w3.org/2000/svg">
<circle cx="41" cy="41" r="41" fill="#2A1215"/>
<path d="M60.4878 41.5181C60.4731 30.7361 51.7509 22.0236 40.9688 22.0236C34.7212 22.0236 29.1569 24.962 25.5841 29.5305L23.2412 27.7002C22.9825 27.5 22.6067 27.6855 22.6116 28.0077L22.6506 36.1589C22.6506 36.4127 22.8898 36.5981 23.1338 36.5347L31.0556 34.6067C31.127 34.5893 31.1921 34.5521 31.2433 34.4994C31.2945 34.4466 31.3298 34.3805 31.3451 34.3086C31.3604 34.2367 31.3551 34.162 31.3298 34.093C31.3045 34.0239 31.2602 33.9635 31.2021 33.9185L28.6591 31.932C29.0496 31.4341 29.4742 30.9558 29.9281 30.5018C31.3503 29.0747 33.0362 27.9376 34.8921 27.1535C36.8152 26.3384 38.8603 25.9284 40.9688 25.9284C43.0774 25.9284 45.1225 26.3384 47.0456 27.1535C48.9053 27.9393 50.5746 29.0668 52.0096 30.5018C53.4446 31.9368 54.5721 33.6061 55.3579 35.4658C56.173 37.3937 56.583 39.4389 56.583 41.5474C56.583 43.656 56.173 45.7011 55.3579 47.6242C54.5721 49.4839 53.4446 51.1531 52.0096 52.5881C50.5746 54.0231 48.9053 55.1506 47.0456 55.9365C45.1225 56.7516 43.0774 57.1616 40.9688 57.1616C38.8603 57.1616 36.8152 56.7516 34.8921 55.9365C33.0362 55.1524 31.3503 54.0152 29.9281 52.5881C29.5621 52.2221 29.2204 51.8414 28.8934 51.446C28.829 51.3668 28.736 51.3162 28.6345 51.3052C28.5331 51.2942 28.4314 51.3238 28.3516 51.3874L25.8867 53.3105C25.7159 53.4472 25.6866 53.6961 25.8232 53.867C29.4059 58.2647 34.8579 61.0712 40.9688 61.0712C51.7606 61.0712 60.5024 52.3148 60.4878 41.5181Z" fill="#F0F5FF"/>
</svg>
